<svg width="20" height="20" viewBox="0 0 20 20" fill="none" xmlns="http://www.w3.org/2000/svg">
<path d="M10.0003 6.24996C12.0714 6.24996 13.7503 7.92888 13.7503 9.99996C13.7503 12.071 12.0714 13.75 10.0003 13.75C7.92924 13.75 6.25033 12.071 6.25033 9.99996C6.25033 7.92888 7.92924 6.24996 10.0003 6.24996ZM10.0003 6.24996H17.4442M7.08366 17.8086L12.352 12.9166M2.50033 6.36317L7.03162 12.3133M10.0003 18.3333C14.6027 18.3333 18.3337 14.6023 18.3337 9.99996C18.3337 5.39758 14.6027 1.66663 10.0003 1.66663C5.39795 1.66663 1.66699 5.39758 1.66699 9.99996C1.66699 14.6023 5.39795 18.3333 10.0003 18.3333Z" stroke="black" stroke-width="1.5" stroke-linecap="round" stroke-linejoin="round"/>
</svg>
